<?xml version="1.0" encoding="UTF-8"?>
<!DOCTYPE svg PUBLIC "-//W3C//DTD SVG 1.1//EN" "http://www.w3.org/Graphics/SVG/1.1/DTD/svg11.dtd">
<svg xmlns="http://www.w3.org/2000/svg" version="1.1" width="845px" height="267px" style="shape-rendering:geometricPrecision; text-rendering:geometricPrecision; image-rendering:optimizeQuality; fill-rule:evenodd; clip-rule:evenodd" xmlns:xlink="http://www.w3.org/1999/xlink">
<g><path style="opacity:0.916" fill="#fefffe" d="M 194.5,11.5 C 208.25,12.0114 212.75,18.6781 208,31.5C 201.333,38.1667 194.667,38.1667 188,31.5C 183.611,22.6271 185.778,15.9605 194.5,11.5 Z"/></g>
<g><path style="opacity:0.912" fill="#fefffe" d="M 220.5,21.5 C 231.628,22.7459 235.462,28.7459 232,39.5C 226.873,44.9944 221.039,45.8278 214.5,42C 208.505,32.8198 210.505,25.9865 220.5,21.5 Z"/></g>
<g><path style="opacity:0.912" fill="#fefffe" d="M 157.5,34.5 C 171.146,34.641 175.313,40.9743 170,53.5C 160.078,59.7466 153.245,57.2466 149.5,46C 150.349,40.7706 153.016,36.9372 157.5,34.5 Z"/></g>
<g><path style="opacity:0.91" fill="#fefffe" d="M 184.5,35.5 C 194.282,36.7338 197.782,42.0672 195,51.5C 191.702,56.2205 187.202,57.7205 181.5,56C 175.458,52.2519 173.958,47.0852 177,40.5C 178.913,37.7197 181.413,36.053 184.5,35.5 Z"/></g>
<g><path style="opacity:0.903" fill="#fefffe" d="M 238.5,37.5 C 249.171,37.3238 253.338,42.3238 251,52.5C 248.081,58.0248 243.581,59.8581 237.5,58C 231.891,54.7231 230.058,49.8897 232,43.5C 233.494,40.6865 235.66,38.6865 238.5,37.5 Z"/></g>
<g><path style="opacity:0.923" fill="#fefffe" d="M 131.5,40.5 C 145.131,39.2947 150.298,45.2947 147,58.5C 143.268,64.0461 138.101,65.8794 131.5,64C 120.845,55.987 120.845,48.1537 131.5,40.5 Z"/></g>
<g><path style="opacity:0.894" fill="#fefffe" d="M 204.5,42.5 C 211.724,41.7739 216.058,44.9406 217.5,52C 216.104,60.0336 211.437,63.0336 203.5,61C 198.008,57.8582 196.508,53.3582 199,47.5C 200.352,45.251 202.185,43.5844 204.5,42.5 Z"/></g>
<g><path style="opacity:0.884" fill="#fefffe" d="M 221.5,54.5 C 230.161,53.3293 233.994,56.9959 233,65.5C 228.076,73.0878 222.743,73.4212 217,66.5C 215.474,61.2389 216.974,57.2389 221.5,54.5 Z"/></g>
<g><path style="opacity:0.9" fill="#fefffe" d="M 254.5,55.5 C 264.807,57.4469 267.64,63.1135 263,72.5C 257.725,76.6473 252.725,76.314 248,71.5C 244.451,63.639 246.617,58.3056 254.5,55.5 Z"/></g>
<g><path style="opacity:0.887" fill="#fefffe" d="M 177.5,59.5 C 188.684,60.0421 191.684,65.2088 186.5,75C 176.426,78.5533 171.926,75.0533 173,64.5C 174.025,62.313 175.525,60.6464 177.5,59.5 Z"/></g>
<g><path style="opacity:0.898" fill="#fefffe" d="M 156.5,60.5 C 167.311,59.4695 171.477,64.1362 169,74.5C 162.079,81.5669 156.079,80.9002 151,72.5C 150.056,67.1456 151.889,63.1456 156.5,60.5 Z"/></g>
<g><path style="opacity:0.872" fill="#fefffe" d="M 194.5,64.5 C 201.169,64.0049 204.336,67.0049 204,73.5C 200.549,79.3525 196.215,80.0192 191,75.5C 189.518,70.774 190.685,67.1074 194.5,64.5 Z"/></g>
<g><path style="opacity:0.905" fill="#fefffe" d="M 135.5,67.5 C 146.486,66.6526 150.986,71.6526 149,82.5C 144.66,88.864 139.16,90.0306 132.5,86C 127.291,78.9704 128.291,72.8037 135.5,67.5 Z"/></g>
<g><path style="opacity:0.863" fill="#fefffe" d="M 232.5,68.5 C 238.295,67.1369 241.961,69.3035 243.5,75C 241.109,82.8773 236.609,84.3773 230,79.5C 228.224,75.3094 229.058,71.6427 232.5,68.5 Z"/></g>
<g><path style="opacity:0.837" fill="#fefffe" d="M 208.5,72.5 C 216.346,72.6936 218.346,76.1936 214.5,83C 205.352,83.5356 203.352,80.0356 208.5,72.5 Z"/></g>
<g><path style="opacity:0.933" fill="#fefffe" d="M 457.5,72.5 C 461.833,72.5 466.167,72.5 470.5,72.5C 470.333,95.8357 470.5,119.169 471,142.5C 472.386,150.471 476.886,155.638 484.5,158C 501.882,161.103 511.215,153.937 512.5,136.5C 511.907,122.113 504.407,114.447 490,113.5C 484.687,113.882 479.853,115.548 475.5,118.5C 474.2,113.95 474.2,109.45 475.5,105C 492.886,97.8886 507.719,101.389 520,115.5C 527.333,129.5 527.333,143.5 520,157.5C 509.099,169.91 495.599,174.077 479.5,170C 468.167,165.999 461,158.166 458,146.5C 457.5,121.836 457.333,97.1689 457.5,72.5 Z"/></g>
<g><path style="opacity:0.927" fill="#fefffe" d="M 625.5,72.5 C 629.833,72.5 634.167,72.5 638.5,72.5C 638.5,91.1667 638.5,109.833 638.5,128.5C 642.106,128.211 645.606,128.544 649,129.5C 653.706,120.587 658.54,111.753 663.5,103C 668.202,102.172 672.869,102.338 677.5,103.5C 672.293,112.749 666.96,121.915 661.5,131C 668.333,133.833 673.167,138.667 676,145.5C 677.363,153.429 677.863,161.429 677.5,169.5C 673.167,169.5 668.833,169.5 664.5,169.5C 667.738,149.074 659.072,139.408 638.5,140.5C 638.5,150.167 638.5,159.833 638.5,169.5C 634.167,169.5 629.833,169.5 625.5,169.5C 625.5,137.167 625.5,104.833 625.5,72.5 Z"/></g>
<g><path style="opacity:0.916" fill="#fefffe" d="M 308.5,74.5 C 321.585,75.6787 325.752,82.3454 321,94.5C 315.873,99.9944 310.039,100.828 303.5,97C 297.95,91.8647 297.117,86.0313 301,79.5C 303.17,77.1769 305.67,75.5103 308.5,74.5 Z"/></g>
<g><path style="opacity:0.888" fill="#fefffe" d="M 261.5,75.5 C 270.845,76.0076 274.011,80.6742 271,89.5C 265.643,93.7867 260.643,93.4534 256,88.5C 254.102,82.3867 255.935,78.0534 261.5,75.5 Z"/></g>
<g><path style="opacity:0.881" fill="#fefffe" d="M 596.5,76.5 C 605.778,75.3759 609.278,79.3759 607,88.5C 602.968,93.3625 598.634,93.6959 594,89.5C 591.458,84.4379 592.292,80.1046 596.5,76.5 Z"/></g>
<g><path style="opacity:0.912" fill="#fefffe" d="M 115.5,80.5 C 129.121,80.6205 133.288,86.9538 128,99.5C 123.139,103.697 117.973,104.197 112.5,101C 105.715,92.9826 106.715,86.1493 115.5,80.5 Z"/></g>
<g><path style="opacity:0.834" fill="#fefffe" d="M 177.5,82.5 C 183.778,83.3885 185.611,86.7219 183,92.5C 175.746,95.9248 172.746,93.5914 174,85.5C 175.145,84.3636 176.312,83.3636 177.5,82.5 Z"/></g>
<g><path style="opacity:0.818" fill="#fefffe" d="M 219.5,83.5 C 224.494,83.329 226.328,85.6624 225,90.5C 222.667,93.1667 220.333,93.1667 218,90.5C 217.167,87.829 217.667,85.4957 219.5,83.5 Z"/></g>
<g><path style="opacity:0.838" fill="#fefffe" d="M 240.5,83.5 C 248.162,83.0268 250.496,86.1935 247.5,93C 242.601,95.5497 239.267,94.2163 237.5,89C 238.124,86.9149 239.124,85.0816 240.5,83.5 Z"/></g>
<g><path style="opacity:0.853" fill="#fefffe" d="M 156.5,94.5 C 155.495,86.6704 158.828,83.5037 166.5,85C 170.125,87.2063 171.292,90.373 170,94.5C 167.839,98.1241 164.672,99.2907 160.5,98C 158.65,97.3103 157.316,96.1436 156.5,94.5 Z"/></g>
<g><path style="opacity:0.783" fill="#fefffe" d="M 191.5,85.5 C 196.83,86.6529 198.163,89.4862 195.5,94C 190.502,95.3297 188.336,93.4964 189,88.5C 189.698,87.3094 190.531,86.3094 191.5,85.5 Z"/></g>
<g><path style="opacity:0.888" fill="#fefffe" d="M 156.5,94.5 C 156.598,106.569 151.431,109.569 141,103.5C 137.964,94.5449 141.131,90.0449 150.5,90C 153.146,90.8041 155.146,92.3041 156.5,94.5 Z"/></g>
<g><path style="opacity:0.914" fill="#fefffe" d="M 556.5,89.5 C 557.485,93.6344 557.818,97.9677 557.5,102.5C 563.833,102.5 570.167,102.5 576.5,102.5C 576.5,106.833 576.5,111.167 576.5,115.5C 570.167,115.5 563.833,115.5 557.5,115.5C 557.117,126.888 557.617,138.221 559,149.5C 559.833,153 562,155.167 565.5,156C 569.086,157.108 572.753,157.608 576.5,157.5C 576.5,161.5 576.5,165.5 576.5,169.5C 565.802,170.874 556.635,167.874 549,160.5C 546.816,157.134 545.483,153.467 545,149.5C 544.5,138.172 544.333,126.838 544.5,115.5C 540.445,115.824 536.445,115.491 532.5,114.5C 540.521,106.146 548.521,97.8128 556.5,89.5 Z"/></g>
<g><path style="opacity:0.69" fill="#fefffe" d="M 202.5,91.5 C 207.512,92.0627 208.512,94.2293 205.5,98C 200.382,97.8242 199.382,95.6576 202.5,91.5 Z"/></g>
<g><path style="opacity:0.87" fill="#fefffe" d="M 264.5,93.5 C 271.648,94.7961 273.815,98.7961 271,105.5C 266.755,109.406 262.755,109.073 259,104.5C 257.185,98.855 259.018,95.1883 264.5,93.5 Z"/></g>
<g><path style="opacity:0.716" fill="#fefffe" d="M 226.5,94.5 C 230.184,95.372 231.184,97.5386 229.5,101C 224.148,101.175 223.148,99.0087 226.5,94.5 Z"/></g>
<g><path style="opacity:0.804" fill="#fefffe" d="M 243.5,98.5 C 249.487,97.9773 251.487,100.477 249.5,106C 242.52,107.168 240.52,104.668 243.5,98.5 Z"/></g>
<g><path style="opacity:0.918" fill="#fefffe" d="M 98.5,99.5 C 113.668,99.8544 118.168,106.854 112,120.5C 103.156,126.664 96.1565,124.998 91,115.5C 89.5742,108.26 92.0742,102.926 98.5,99.5 Z"/></g>
<g><path style="opacity:0.584" fill="#fefffe" d="M 209.5,100.5 C 213.173,101.708 213.34,103.374 210,105.5C 208.212,103.977 208.045,102.31 209.5,100.5 Z"/></g>
<g><path style="opacity:0.896" fill="#fefffe" d="M 131.5,101.5 C 141.807,103.447 144.64,109.114 140,118.5C 134.686,122.636 129.686,122.302 125,117.5C 121.451,109.639 123.617,104.306 131.5,101.5 Z"/></g>
<g><path style="opacity:0.922" fill="#fefffe" d="M 307.5,101.5 C 319.151,102.463 322.984,108.463 319,119.5C 311.583,126.598 304.916,125.932 299,117.5C 297.428,109.635 300.262,104.302 307.5,101.5 Z"/></g>
<g><path style="opacity:0.918" fill="#fefffe" d="M 410.5,101.5 C 419.961,100.483 428.961,101.983 437.5,106C 444.847,113.751 446.347,122.584 442,132.5C 437.848,139.496 431.681,143.33 423.5,144C 418.177,144.499 412.844,144.666 407.5,144.5C 407.5,140.833 407.5,137.167 407.5,133.5C 414.027,133.93 420.36,133.096 426.5,131C 430.812,126.481 431.479,121.481 428.5,116C 414.864,110.735 405.364,114.901 400,128.5C 396.864,150.026 406.031,159.86 427.5,158C 430,157.115 432.333,155.948 434.5,154.5C 437.701,156.866 440.367,159.7 442.5,163C 439.51,166.836 435.51,169.169 430.5,170C 414.01,174.012 400.51,169.512 390,156.5C 383.229,141.274 384.229,126.608 393,112.5C 397.88,107.152 403.714,103.486 410.5,101.5 Z"/></g>
<g><path style="opacity:0.919" fill="#fefffe" d="M 588.5,102.5 C 594.833,102.5 601.167,102.5 607.5,102.5C 607.5,124.833 607.5,147.167 607.5,169.5C 603.167,169.5 598.833,169.5 594.5,169.5C 594.5,151.5 594.5,133.5 594.5,115.5C 590.774,115.823 587.107,115.489 583.5,114.5C 585.563,110.638 587.23,106.638 588.5,102.5 Z"/></g>
<g><path style="opacity:0.924" fill="#fefffe" d="M 695.5,102.5 C 706.881,102.144 718.215,102.644 729.5,104C 738.333,106.167 743.833,111.667 746,120.5C 746.5,136.83 746.667,153.163 746.5,169.5C 733.163,169.667 719.829,169.5 706.5,169C 691.832,164.839 686.665,155.339 691,140.5C 696.572,131.626 704.739,127.293 715.5,127.5C 719.905,128.01 724.238,128.843 728.5,130C 729.632,134.413 729.799,138.913 729,143.5C 721.753,138.901 714.253,138.401 706.5,142C 702.056,145.712 701.556,149.879 705,154.5C 706.648,155.717 708.481,156.55 710.5,157C 718.159,157.5 725.826,157.666 733.5,157.5C 733.667,146.828 733.5,136.161 733,125.5C 731.932,120.765 729.099,117.598 724.5,116C 714.839,115.5 705.172,115.334 695.5,115.5C 695.5,111.167 695.5,106.833 695.5,102.5 Z"/></g>
<g><path style="opacity:0.923" fill="#fefffe" d="M 779.5,102.5 C 786.5,102.5 793.5,102.5 800.5,102.5C 800.5,106.833 800.5,111.167 800.5,115.5C 793.492,115.334 786.492,115.5 779.5,116C 777.152,116.346 775.319,117.513 774,119.5C 772.544,136.097 772.044,152.763 772.5,169.5C 768.167,169.5 763.833,169.5 759.5,169.5C 759.055,151.777 759.555,134.111 761,116.5C 764.395,108.063 770.562,103.397 779.5,102.5 Z"/></g>
<g><path style="opacity:0.575" fill="#fefffe" d="M 226.5,106.5 C 227.833,106.5 229.167,106.5 230.5,106.5C 230.833,109.5 229.5,110.833 226.5,110.5C 226.5,109.167 226.5,107.833 226.5,106.5 Z"/></g>
<g><path style="opacity:0.831" fill="#fefffe" d="M 261.5,110.5 C 268.141,110.476 270.307,113.476 268,119.5C 263.366,123.464 259.866,122.464 257.5,116.5C 257.937,113.775 259.27,111.775 261.5,110.5 Z"/></g>
<g><path style="opacity:0.713" fill="#fefffe" d="M 243.5,111.5 C 248.159,111.015 249.492,112.848 247.5,117C 242.001,117.806 240.668,115.973 243.5,111.5 Z"/></g>
<g><path style="opacity:0.938" fill="#fefffe" d="M 115.5,120.5 C 126.542,119.044 131.376,123.711 130,134.5C 127.185,140.169 122.685,142.002 116.5,140C 110.831,137.185 108.998,132.685 111,126.5C 112.332,124.34 113.832,122.34 115.5,120.5 Z"/></g>
<g><path style="opacity:0.588" fill="#fefffe" d="M 237.5,121.5 C 238.833,121.5 240.167,121.5 241.5,121.5C 241.5,122.833 241.5,124.167 241.5,125.5C 238.5,125.833 237.167,124.5 237.5,121.5 Z"/></g>
<g><path style="opacity:0.603" fill="#fefffe" d="M 180.5,122.5 C 181.5,122.5 182.5,122.5 183.5,122.5C 183.5,123.833 183.5,125.167 183.5,126.5C 180.046,126.733 179.046,125.4 180.5,122.5 Z"/></g>
<g><path style="opacity:0.807" fill="#fefffe" d="M 256.5,124.5 C 261.318,125.303 262.651,127.97 260.5,132.5C 256.559,134.437 254.226,133.271 253.5,129C 253.557,126.791 254.557,125.291 256.5,124.5 Z"/></g>
<g><path style="opacity:0.77" fill="#fefffe" d="M 170.5,125.5 C 175.159,125.015 176.492,126.848 174.5,131C 169.728,131.81 168.395,129.977 170.5,125.5 Z"/></g>
<g><path style="opacity:0.9" fill="#fefffe" d="M 298.5,125.5 C 309.032,125.199 313.199,130.199 311,140.5C 307.252,146.542 302.085,148.042 295.5,145C 290.414,140.439 289.581,135.273 293,129.5C 294.812,128.023 296.645,126.69 298.5,125.5 Z"/></g>
<g><path style="opacity:0.806" fill="#fefffe" d="M 161.5,133.5 C 167.89,132.218 169.89,134.551 167.5,140.5C 160.746,142.532 158.746,140.199 161.5,133.5 Z"/></g>
<g><path style="opacity:0.774" fill="#fefffe" d="M 247.5,135.5 C 252.159,135.015 253.492,136.848 251.5,141C 246.728,141.81 245.395,139.977 247.5,135.5 Z"/></g>
<g><path style="opacity:0.62" fill="#fefffe" d="M 238.5,140.5 C 239.833,140.5 241.167,140.5 242.5,140.5C 242.778,142.346 242.111,143.68 240.5,144.5C 238.889,143.68 238.222,142.346 238.5,140.5 Z"/></g>
<g><path style="opacity:0.625" fill="#fefffe" d="M 180.5,141.5 C 182.346,141.222 183.68,141.889 184.5,143.5C 183.68,145.111 182.346,145.778 180.5,145.5C 180.5,144.167 180.5,142.833 180.5,141.5 Z"/></g>
<g><path style="opacity:0.919" fill="#fefffe" d="M 107.5,142.5 C 118.824,141.326 123.991,146.326 123,157.5C 119.677,163.908 114.511,166.075 107.5,164C 101.606,160.25 99.7725,155.083 102,148.5C 103.36,145.977 105.193,143.977 107.5,142.5 Z"/></g>
<g><path style="opacity:0.913" fill="#fefffe" d="M 315.5,142.5 C 329.431,142.918 333.931,149.584 329,162.5C 322.333,169.167 315.667,169.167 309,162.5C 304.624,153.606 306.791,146.939 315.5,142.5 Z"/></g>
<g><path style="opacity:0.838" fill="#fefffe" d="M 156.5,144.5 C 164.294,145.252 165.961,148.752 161.5,155C 155.703,156.526 152.87,154.359 153,148.5C 153.69,146.65 154.856,145.316 156.5,144.5 Z"/></g>
<g><path style="opacity:0.902" fill="#fefffe" d="M 285.5,145.5 C 295.535,145.032 299.702,149.698 298,159.5C 292.755,165.778 287.088,166.111 281,160.5C 278.473,154.235 279.973,149.235 285.5,145.5 Z"/></g>
<g><path style="opacity:0.693" fill="#fefffe" d="M 175.5,148.5 C 180.472,148.952 181.472,151.119 178.5,155C 173.382,154.824 172.382,152.658 175.5,148.5 Z"/></g>
<g><path style="opacity:0.575" fill="#fefffe" d="M 191.5,156.5 C 192.833,156.5 194.167,156.5 195.5,156.5C 195.5,157.833 195.5,159.167 195.5,160.5C 192.5,160.833 191.167,159.5 191.5,156.5 Z"/></g>
<g><path style="opacity:0.857" fill="#fefffe" d="M 153.5,158.5 C 162.85,158.365 165.517,162.532 161.5,171C 152.956,174.322 149.123,171.489 150,162.5C 151.376,161.295 152.542,159.962 153.5,158.5 Z"/></g>
<g><path style="opacity:0.777" fill="#fefffe" d="M 173.5,159.5 C 176.99,159.151 179.323,160.651 180.5,164C 178.644,168.67 175.81,169.503 172,166.5C 171.167,163.829 171.667,161.496 173.5,159.5 Z"/></g>
<g><path style="opacity:0.875" fill="#fefffe" d="M 271.5,159.5 C 280.841,160.004 284.007,164.671 281,173.5C 275.643,177.787 270.643,177.453 266,172.5C 265.728,180.46 261.895,183.293 254.5,181C 251.136,177.974 250.636,174.474 253,170.5C 257.269,167.617 261.269,167.95 265,171.5C 264.353,165.782 266.52,161.782 271.5,159.5 Z"/></g>
<g><path style="opacity:0.617" fill="#fefffe" d="M 210.5,161.5 C 212.912,161.694 213.912,163.027 213.5,165.5C 212.167,165.5 210.833,165.5 209.5,165.5C 209.433,164.041 209.766,162.708 210.5,161.5 Z"/></g>
<g><path style="opacity:0.917" fill="#fefffe" d="M 299.5,163.5 C 311.921,164.055 316.087,170.055 312,181.5C 305.745,188.059 299.412,188.059 293,181.5C 289.762,173.37 291.929,167.37 299.5,163.5 Z"/></g>
<g><path style="opacity:0.775" fill="#fefffe" d="M 192.5,165.5 C 197.159,165.015 198.492,166.848 196.5,171C 191.728,171.81 190.395,169.977 192.5,165.5 Z"/></g>
<g><path style="opacity:0.923" fill="#fefffe" d="M 105.5,167.5 C 118.829,165.99 124.329,171.657 122,184.5C 117.021,191.99 110.521,193.49 102.5,189C 96.5041,180.795 97.5041,173.629 105.5,167.5 Z"/></g>
<g><path style="opacity:0.711" fill="#fefffe" d="M 216.5,168.5 C 221.159,168.015 222.492,169.848 220.5,174C 215.001,174.806 213.668,172.973 216.5,168.5 Z"/></g>
<g><path style="opacity:0.83" fill="#fefffe" d="M 175.5,172.5 C 180.406,171.306 183.406,173.139 184.5,178C 182.597,183.784 179.097,184.951 174,181.5C 172.058,178.141 172.558,175.141 175.5,172.5 Z"/></g>
<g><path style="opacity:0.795" fill="#fefffe" d="M 226.5,172.5 C 233.536,171.603 235.203,174.103 231.5,180C 225.206,180.578 223.539,178.078 226.5,172.5 Z"/></g>
<g><path style="opacity:0.835" fill="#fefffe" d="M 240.5,172.5 C 248.618,172.382 250.618,175.882 246.5,183C 237.473,183.477 235.473,179.977 240.5,172.5 Z"/></g>
<g><path style="opacity:0.889" fill="#fefffe" d="M 155.5,173.5 C 164.649,173.156 168.149,177.49 166,186.5C 163.045,190.277 159.212,191.443 154.5,190C 147.846,184.105 148.179,178.605 155.5,173.5 Z"/></g>
<g><path style="opacity:0.792" fill="#fefffe" d="M 198.5,174.5 C 204.643,175.026 205.976,177.86 202.5,183C 197.504,183.664 195.67,181.498 197,176.5C 197.717,175.956 198.217,175.289 198.5,174.5 Z"/></g>
<g><path style="opacity:0.915" fill="#fefffe" d="M 278.5,178.5 C 289.486,177.653 293.986,182.653 292,193.5C 286.749,200.475 280.749,201.142 274,195.5C 270.931,188.46 272.431,182.793 278.5,178.5 Z"/></g>
<g><path style="opacity:0.824" fill="#fefffe" d="M 209.5,182.5 C 215.356,182.854 217.523,185.854 216,191.5C 210.927,195.864 207.427,194.864 205.5,188.5C 205.67,185.674 207.003,183.674 209.5,182.5 Z"/></g>
<g><path style="opacity:0.869" fill="#fefffe" d="M 191.5,196.5 C 190.833,196.5 190.5,196.833 190.5,197.5C 181.487,199.651 177.987,196.318 180,187.5C 186.334,182.573 190.834,183.906 193.5,191.5C 192.826,193.195 192.159,194.862 191.5,196.5 Z"/></g>
<g><path style="opacity:0.871" fill="#fefffe" d="M 223.5,187.5 C 231.086,188.687 233.419,192.687 230.5,199.5C 227.537,202.658 224.204,203.158 220.5,201C 216.225,195.371 217.225,190.871 223.5,187.5 Z"/></g>
<g><path style="opacity:0.892" fill="#fefffe" d="M 257.5,187.5 C 268.311,186.47 272.477,191.136 270,201.5C 267.459,206.069 263.625,207.569 258.5,206C 249.567,200.346 249.233,194.179 257.5,187.5 Z"/></g>
<g><path style="opacity:0.823" fill="#fefffe" d="M 425.5,188.5 C 431.643,189.026 432.976,191.86 429.5,197C 424.504,197.664 422.67,195.498 424,190.5C 424.717,189.956 425.217,189.289 425.5,188.5 Z"/></g>
<g><path style="opacity:0.889" fill="#fefffe" d="M 239.5,189.5 C 247.511,190.339 250.677,194.672 249,202.5C 245.194,207.555 240.694,208.389 235.5,205C 231.017,198.288 232.351,193.121 239.5,189.5 Z"/></g>
<g><path style="opacity:0.904" fill="#fefffe" d="M 162.5,191.5 C 171.987,190.819 176.154,195.153 175,204.5C 172.549,210.089 168.383,211.922 162.5,210C 157.268,207.367 155.435,203.201 157,197.5C 158.36,194.977 160.193,192.977 162.5,191.5 Z"/></g>
<g><path style="opacity:0.892" fill="#fefffe" d="M 190.5,197.5 C 191.167,197.5 191.5,197.167 191.5,196.5C 203.032,193.865 207.199,198.198 204,209.5C 196.387,214.612 191.221,212.778 188.5,204C 189.033,201.774 189.7,199.607 190.5,197.5 Z"/></g>
<g><path style="opacity:0.919" fill="#fefffe" d="M 283.5,201.5 C 292.081,201.448 297.081,205.614 298.5,214C 296.856,223.658 291.189,227.658 281.5,226C 273.624,221.93 271.458,215.763 275,207.5C 277.322,204.605 280.155,202.605 283.5,201.5 Z"/></g>
<g><path style="opacity:0.858" fill="#fefffe" d="M 386.5,202.5 C 392.509,202.334 398.509,202.501 404.5,203C 410.369,204.558 413.536,208.391 414,214.5C 414.5,222.493 414.666,230.493 414.5,238.5C 406.826,238.666 399.159,238.5 391.5,238C 383.926,235.466 381.426,230.299 384,222.5C 387.119,218.104 391.452,215.771 397,215.5C 399.462,216.159 401.962,216.493 404.5,216.5C 404.664,219.187 404.497,221.854 404,224.5C 401.083,222.607 397.916,222.107 394.5,223C 389.653,225.186 389.32,227.852 393.5,231C 397.821,231.499 402.154,231.666 406.5,231.5C 411.241,213.579 404.574,206.245 386.5,209.5C 386.5,207.167 386.5,204.833 386.5,202.5 Z"/></g>
<g><path style="opacity:0.892" fill="#fefffe" d="M 421.5,202.5 C 424.833,202.5 428.167,202.5 431.5,202.5C 431.5,214.5 431.5,226.5 431.5,238.5C 429.167,238.5 426.833,238.5 424.5,238.5C 424.5,228.833 424.5,219.167 424.5,209.5C 422.396,209.799 420.396,209.466 418.5,208.5C 419.513,206.473 420.513,204.473 421.5,202.5 Z"/></g>
<g><path style="opacity:0.887" fill="#fefffe" d="M 212.5,204.5 C 222.155,205.308 225.655,210.308 223,219.5C 217.333,226.167 211.667,226.167 206,219.5C 203.427,212.371 205.594,207.371 212.5,204.5 Z"/></g>
<g><path style="opacity:0.923" fill="#fefffe" d="M 175.5,208.5 C 186.49,206.992 191.324,211.658 190,222.5C 186.723,228.109 181.89,229.942 175.5,228C 167.581,221.506 167.581,215.006 175.5,208.5 Z"/></g>
<g><path style="opacity:0.905" fill="#fefffe" d="M 233.5,209.5 C 243.312,209.811 247.479,214.811 246,224.5C 243.081,230.025 238.581,231.858 232.5,230C 225.498,225.995 223.998,220.495 228,213.5C 229.812,212.023 231.645,210.69 233.5,209.5 Z"/></g>
<g><path style="opacity:0.917" fill="#fefffe" d="M 257.5,209.5 C 269.974,210.099 274.141,216.099 270,227.5C 265.206,232.992 259.706,233.826 253.5,230C 247.162,221.47 248.495,214.636 257.5,209.5 Z"/></g>
<g><path style="opacity:0.92" fill="#fefffe" d="M 195.5,222.5 C 207.626,221.453 212.46,226.786 210,238.5C 206.565,243.794 201.732,245.627 195.5,244C 189.397,240.96 187.231,236.126 189,229.5C 190.356,226.314 192.522,223.981 195.5,222.5 Z"/></g>
<g><path style="opacity:0.919" fill="#fefffe" d="M 219.5,230.5 C 231.53,229.694 236.863,235.194 235.5,247C 231.949,254.311 226.282,256.644 218.5,254C 211.657,249.8 209.824,243.967 213,236.5C 215.063,234.266 217.229,232.266 219.5,230.5 Z"/></g>
</svg>
