<svg version="1.1" id="Layer_1" xmlns="http://www.w3.org/2000/svg" xmlns:xlink="http://www.w3.org/1999/xlink" x="0px" y="0px"
	 width="100%" viewBox="0 0 80 80" enable-background="new 0 0 80 80" xml:space="preserve">
<path fill="#000000" opacity="1.000000" stroke="none" 
	d="
M1.000000,33.000000 
	C1.000000,22.000000 1.000000,11.500000 1.000000,1.000000 
	C27.666666,1.000000 54.333332,1.000000 81.000000,1.000000 
	C81.000000,27.666666 81.000000,54.333332 81.000000,81.000000 
	C54.333332,81.000000 27.666666,81.000000 1.000000,81.000000 
	C1.000000,65.166664 1.000000,49.333332 1.000000,33.000000 
M25.410818,8.242060 
	C24.953688,9.170211 24.496555,10.098361 24.000999,10.998777 
	C24.000999,10.998777 24.029438,11.036196 23.364292,11.278905 
	C22.674179,13.215491 21.984064,15.152078 21.207836,17.967606 
	C21.234320,20.616316 21.260805,23.265028 21.095610,26.592419 
	C21.360149,27.704651 21.624689,28.816883 21.259378,30.425375 
	C21.254723,34.163765 19.511894,38.629669 25.311417,40.576862 
	C25.337566,40.986485 25.363716,41.396103 25.123686,42.484390 
	C25.508759,42.981300 25.893831,43.478214 26.328005,44.550911 
	C26.619125,44.988544 26.910246,45.426174 27.079981,46.543266 
	C27.771185,47.295597 28.462389,48.047932 29.399689,49.422470 
	C30.138105,50.255543 30.876522,51.088615 31.313789,52.705162 
	C31.200254,53.532425 31.086720,54.359692 30.167953,55.034668 
	C27.130943,56.042355 24.093931,57.050041 20.998993,58.001881 
	C20.998993,58.001881 21.051584,58.063839 20.372614,58.022121 
	C19.595724,58.705090 18.818832,59.388058 17.452732,60.311852 
	C16.325552,61.555046 15.198371,62.798241 13.367662,64.209099 
	C10.203956,68.536560 8.165546,73.150536 9.335588,78.619965 
	C30.726629,78.619965 51.765411,78.619965 72.939545,78.619965 
	C73.187904,72.273491 71.926773,66.936470 66.729469,62.497814 
	C66.138878,62.022022 65.548294,61.546227 64.801598,60.377079 
	C60.935902,56.718872 56.458340,54.684719 50.796623,54.446735 
	C50.749199,53.674068 50.701775,52.901402 51.031765,51.516319 
	C54.216591,46.630398 57.709251,41.906414 60.412739,36.767281 
	C61.311531,35.058750 60.184929,32.284737 59.878113,29.332054 
	C59.895737,28.883726 59.913364,28.435400 60.560497,27.659004 
	C60.609196,26.743170 60.657898,25.827337 60.792263,24.046213 
	C60.763565,21.727322 60.734867,19.408428 60.869484,16.468752 
	C60.553421,15.984737 60.237362,15.500724 59.809113,14.328217 
	C58.532593,12.949678 57.427685,11.336391 55.938999,10.248072 
	C53.750301,8.648005 51.287590,7.422747 48.711781,5.367208 
	C46.778671,4.676243 44.845558,3.985278 42.047024,3.208571 
	C39.727772,3.237273 37.408524,3.265975 34.378201,3.136141 
	C32.601246,4.103351 30.824291,5.070560 28.998756,6.002677 
	C28.998756,6.002677 29.033932,6.051512 28.376026,6.054770 
	C27.600155,6.716052 26.824282,7.377333 26.000475,8.000373 
	C26.000475,8.000373 26.038471,8.048480 25.410818,8.242060 
z"/>
<path fill="#8BB7F0" opacity="1.000000" stroke="none" 
	d="
M14.071191,64.041435 
	C15.198371,62.798241 16.325552,61.555046 18.095583,60.216736 
	C19.509483,59.435688 20.280533,58.749763 21.051584,58.063839 
	C21.051584,58.063839 20.998993,58.001881 21.424063,58.060669 
	C24.882513,57.426544 27.915895,56.733627 30.976158,56.036819 
	C31.003038,56.032932 31.036386,55.990055 31.024689,56.324070 
	C31.371811,57.376564 31.730629,58.095043 32.384865,59.016518 
	C36.336636,64.608818 46.577171,63.341068 50.306068,57.860321 
	C50.694626,57.129681 50.829212,56.558521 50.979828,56.010071 
	C50.995850,56.032776 51.050259,56.044121 51.416721,56.100571 
	C56.174690,57.794823 60.566196,59.432625 64.957703,61.070431 
	C65.548294,61.546227 66.138878,62.022022 66.796783,63.143494 
	C68.690208,68.198700 70.516319,72.608231 72.552605,77.525253 
	C50.965939,77.525253 30.705669,77.525253 9.663680,77.525253 
	C10.328072,75.054192 10.733400,73.184547 11.339019,71.382217 
	C12.170213,68.908569 13.153231,66.485931 14.071191,64.041435 
z"/>
<path fill="#F4CD85" opacity="1.000000" stroke="none" 
	d="
M27.201365,45.863808 
	C26.910246,45.426174 26.619125,44.988544 26.525524,44.108810 
	C26.278650,43.046379 25.834259,42.426052 25.389866,41.805725 
	C25.363716,41.396103 25.337566,40.986485 25.531189,40.046021 
	C25.195990,37.695461 24.641018,35.875748 24.416107,33.871658 
	C25.167562,32.657841 25.980268,31.613808 25.942520,30.601484 
	C25.780329,26.252090 28.813313,24.362213 32.069180,24.209297 
	C38.532421,23.905743 44.559124,23.084213 50.184914,16.503195 
	C52.482235,21.586212 54.224689,25.473551 55.997906,29.346802 
	C56.584480,30.628061 57.250320,31.873030 57.894020,33.500725 
	C54.905830,39.914860 51.903538,45.962864 48.557556,52.009174 
	C44.845688,52.447662 41.483509,53.155792 38.107185,53.231258 
	C35.953938,53.279392 33.779743,52.390465 31.614941,51.921684 
	C30.876522,51.088615 30.138105,50.255543 29.304569,48.775593 
	C28.540089,47.373745 27.870728,46.618778 27.201365,45.863808 
z"/>
<path fill="#A5704D" opacity="1.000000" stroke="none" 
	d="
M57.879925,33.134590 
	C57.250320,31.873030 56.584480,30.628061 55.997906,29.346802 
	C54.224689,25.473551 52.482235,21.586212 50.184914,16.503195 
	C44.559124,23.084213 38.532421,23.905743 32.069180,24.209297 
	C28.813313,24.362213 25.780329,26.252090 25.942520,30.601484 
	C25.980268,31.613808 25.167562,32.657841 24.170742,33.604355 
	C23.391382,32.338135 23.187449,31.154848 22.986809,29.620275 
	C22.422497,28.150574 21.854893,27.032156 21.287289,25.913738 
	C21.260805,23.265028 21.234320,20.616316 21.564302,17.403648 
	C22.623659,14.905192 23.326548,12.970695 24.029438,11.036196 
	C24.029438,11.036196 24.000999,10.998777 24.344402,10.932825 
	C25.138027,9.927408 25.588249,8.987944 26.038471,8.048480 
	C26.038471,8.048480 26.000475,8.000373 26.363293,8.021766 
	C27.495382,7.379276 28.264658,6.715394 29.033932,6.051512 
	C29.033932,6.051512 28.998756,6.002677 29.388453,6.020583 
	C31.548523,5.123885 33.318897,4.209280 35.089272,3.294676 
	C37.408524,3.265975 39.727772,3.237273 42.612671,3.558679 
	C45.099419,4.618464 47.020515,5.328141 48.941612,6.037818 
	C51.287590,7.422747 53.750301,8.648005 55.938999,10.248072 
	C57.427685,11.336391 58.532593,12.949678 59.678612,14.839945 
	C59.934128,15.930961 60.320148,16.510248 60.706165,17.089537 
	C60.734867,19.408428 60.763565,21.727322 60.471893,24.575874 
	C60.078011,26.066048 60.004501,27.026560 59.930992,27.987072 
	C59.913364,28.435400 59.895737,28.883726 59.750481,29.654751 
	C59.622845,29.977446 59.261295,29.955868 58.985710,30.139706 
	C58.525215,31.136139 58.340302,31.948730 58.087143,32.855103 
	C58.018902,32.948879 57.879925,33.134590 57.879925,33.134590 
z"/>
<path fill="#DCB773" opacity="1.000000" stroke="none" 
	d="
M31.464365,52.313423 
	C33.779743,52.390465 35.953938,53.279392 38.107185,53.231258 
	C41.483509,53.155792 44.845688,52.447662 48.850971,52.032104 
	C49.876839,52.080730 50.265598,52.104733 50.654350,52.128735 
	C50.701775,52.901402 50.749199,53.674068 50.862457,55.032692 
	C50.928291,55.618645 51.050259,56.044121 51.050259,56.044121 
	C51.050259,56.044121 50.995850,56.032776 50.716072,56.157631 
	C50.308228,56.861595 50.180161,57.440704 50.052094,58.019810 
	C46.577171,63.341068 36.336636,64.608818 32.365791,58.695351 
	C31.712996,57.444141 31.374691,56.717098 31.036386,55.990055 
	C31.036386,55.990055 31.003038,56.032932 31.036663,55.824883 
	C31.070290,55.616837 30.973186,55.186954 30.973186,55.186954 
	C31.086720,54.359692 31.200254,53.532425 31.464365,52.313423 
z"/>
<path fill="#517CB7" opacity="1.000000" stroke="none" 
	d="
M13.719427,64.125267 
	C13.153231,66.485931 12.170213,68.908569 11.339019,71.382217 
	C10.733400,73.184547 10.328072,75.054192 9.663680,77.525253 
	C30.705669,77.525253 50.965939,77.525253 72.552605,77.525253 
	C70.516319,72.608231 68.690208,68.198700 66.896774,63.415550 
	C71.926773,66.936470 73.187904,72.273491 72.939545,78.619965 
	C51.765411,78.619965 30.726629,78.619965 9.335588,78.619965 
	C8.165546,73.150536 10.203956,68.536560 13.719427,64.125267 
z"/>
<path fill="#9B7E47" opacity="1.000000" stroke="none" 
	d="
M50.843060,51.822525 
	C50.265598,52.104733 49.876839,52.080730 49.194664,52.033794 
	C51.903538,45.962864 54.905830,39.914860 57.894020,33.500725 
	C57.879925,33.134590 58.018902,32.948879 58.309353,32.648254 
	C58.820301,31.550373 59.040798,30.753120 59.261295,29.955868 
	C59.261295,29.955868 59.622845,29.977446 59.803558,29.987637 
	C60.184929,32.284737 61.311531,35.058750 60.412739,36.767281 
	C57.709251,41.906414 54.216591,46.630398 50.843060,51.822525 
z"/>
<path fill="#9B7F48" opacity="1.000000" stroke="none" 
	d="
M22.983515,29.971561 
	C23.187449,31.154848 23.391382,32.338135 23.840681,33.788727 
	C24.641018,35.875748 25.195990,37.695461 25.501308,39.739456 
	C19.511894,38.629669 21.254723,34.163765 21.847397,30.199463 
	C22.618113,29.972889 22.800814,29.972225 22.983515,29.971561 
z"/>
<path fill="#517CB7" opacity="1.000000" stroke="none" 
	d="
M51.416721,56.100571 
	C51.050259,56.044121 50.928291,55.618645 50.976768,55.402706 
	C56.458340,54.684719 60.935902,56.718872 64.879654,60.723755 
	C60.566196,59.432625 56.174690,57.794823 51.416721,56.100571 
z"/>
<path fill="#517CB7" opacity="1.000000" stroke="none" 
	d="
M30.570570,55.110809 
	C30.973186,55.186954 31.070290,55.616837 31.009785,55.828773 
	C27.915895,56.733627 24.882513,57.426544 21.453026,58.088593 
	C24.093931,57.050041 27.130943,56.042355 30.570570,55.110809 
z"/>
<path fill="#7D5236" opacity="1.000000" stroke="none" 
	d="
M48.826698,5.702513 
	C47.020515,5.328141 45.099419,4.618464 43.045387,3.601550 
	C44.845558,3.985278 46.778671,4.676243 48.826698,5.702513 
z"/>
<path fill="#7D5236" opacity="1.000000" stroke="none" 
	d="
M34.733734,3.215409 
	C33.318897,4.209280 31.548523,5.123885 29.412743,6.038130 
	C30.824291,5.070560 32.601246,4.103351 34.733734,3.215409 
z"/>
<path fill="#7D5236" opacity="1.000000" stroke="none" 
	d="
M23.696865,11.157551 
	C23.326548,12.970695 22.623659,14.905192 21.607359,16.964178 
	C21.984064,15.152078 22.674179,13.215491 23.696865,11.157551 
z"/>
<path fill="#7D5236" opacity="1.000000" stroke="none" 
	d="
M22.986809,29.620275 
	C22.800814,29.972225 22.618113,29.972889 22.162321,29.951332 
	C21.624689,28.816883 21.360149,27.704651 21.191448,26.253078 
	C21.854893,27.032156 22.422497,28.150574 22.986809,29.620275 
z"/>
<path fill="#7D5236" opacity="1.000000" stroke="none" 
	d="
M60.245743,27.823038 
	C60.004501,27.026560 60.078011,26.066048 60.429062,25.008518 
	C60.657898,25.827337 60.609196,26.743170 60.245743,27.823038 
z"/>
<path fill="#9B7F48" opacity="1.000000" stroke="none" 
	d="
M27.140673,46.203537 
	C27.870728,46.618778 28.540089,47.373745 29.181522,48.464489 
	C28.462389,48.047932 27.771185,47.295597 27.140673,46.203537 
z"/>
<path fill="#517CB7" opacity="1.000000" stroke="none" 
	d="
M20.712099,58.042980 
	C20.280533,58.749763 19.509483,59.435688 18.390188,60.096321 
	C18.818832,59.388058 19.595724,58.705090 20.712099,58.042980 
z"/>
<path fill="#7D5236" opacity="1.000000" stroke="none" 
	d="
M28.704979,6.053141 
	C28.264658,6.715394 27.495382,7.379276 26.387260,8.040886 
	C26.824282,7.377333 27.600155,6.716052 28.704979,6.053141 
z"/>
<path fill="#7D5236" opacity="1.000000" stroke="none" 
	d="
M25.724644,8.145269 
	C25.588249,8.987944 25.138027,9.927408 24.363613,10.946692 
	C24.496555,10.098361 24.953688,9.170211 25.724644,8.145269 
z"/>
<path fill="#9B7F48" opacity="1.000000" stroke="none" 
	d="
M25.256777,42.145058 
	C25.834259,42.426052 26.278650,43.046379 26.500973,43.820915 
	C25.893831,43.478214 25.508759,42.981300 25.256777,42.145058 
z"/>
<path fill="#7D5236" opacity="1.000000" stroke="none" 
	d="
M60.787827,16.779144 
	C60.320148,16.510248 59.934128,15.930961 59.734703,15.184191 
	C60.237362,15.500724 60.553421,15.984737 60.787827,16.779144 
z"/>
<path fill="#9B7F48" opacity="1.000000" stroke="none" 
	d="
M31.024689,56.324070 
	C31.374691,56.717098 31.712996,57.444141 32.070374,58.492355 
	C31.730629,58.095043 31.371811,57.376564 31.024689,56.324070 
z"/>
<path fill="#9B7E47" opacity="1.000000" stroke="none" 
	d="
M50.306068,57.860321 
	C50.180161,57.440704 50.308228,56.861595 50.700050,56.134926 
	C50.829212,56.558521 50.694626,57.129681 50.306068,57.860321 
z"/>
<path fill="#7D5236" opacity="1.000000" stroke="none" 
	d="
M58.985710,30.139706 
	C59.040798,30.753120 58.820301,31.550373 58.377594,32.554474 
	C58.340302,31.948730 58.525215,31.136139 58.985710,30.139706 
z"/>
</svg>